<svg width="32" height="32" viewBox="0 0 32 32" fill="none" xmlns="http://www.w3.org/2000/svg">
<path d="M8.6665 10.8133C7.47984 10.8133 6.51984 9.85332 6.51984 8.66666C6.51984 8.09732 6.746 7.55131 7.14858 7.14873C7.55116 6.74616 8.09717 6.51999 8.6665 6.51999C9.85317 6.51999 10.8132 7.47999 10.8132 8.66666C10.8132 9.23599 10.587 9.782 10.1844 10.1846C9.78185 10.5872 9.23584 10.8133 8.6665 10.8133ZM8.6665 2.66666C5.33317 2.66666 2.6665 5.33332 2.6665 8.66666C2.6665 13.16 8.6665 19.8133 8.6665 19.8133C8.6665 19.8133 14.6665 13.16 14.6665 8.66666C14.6665 5.33332 11.9998 2.66666 8.6665 2.66666ZM23.3332 10.8133C22.7638 10.8133 22.2178 10.5872 21.8152 10.1846C21.4127 9.782 21.1865 9.23599 21.1865 8.66666C21.1865 8.38475 21.242 8.10561 21.3499 7.84516C21.4578 7.58472 21.6159 7.34807 21.8152 7.14873C22.0146 6.9494 22.2512 6.79127 22.5117 6.68339C22.7721 6.57551 23.0513 6.51999 23.3332 6.51999C23.6151 6.51999 23.8942 6.57551 24.1547 6.68339C24.4151 6.79127 24.6518 6.9494 24.8511 7.14873C25.0504 7.34807 25.2085 7.58472 25.3164 7.84516C25.4243 8.10561 25.4798 8.38475 25.4798 8.66666C25.4798 9.23599 25.2537 9.782 24.8511 10.1846C24.4485 10.5872 23.9025 10.8133 23.3332 10.8133ZM23.3332 2.66666C19.9998 2.66666 17.3332 5.33332 17.3332 8.66666C17.3332 13.16 23.3332 19.8133 23.3332 19.8133C23.3332 19.8133 29.3332 13.16 29.3332 8.66666C29.3332 5.33332 26.6665 2.66666 23.3332 2.66666ZM23.3332 21.3333C21.6398 21.3333 20.1332 22.4 19.5732 24H12.4265C12.0732 23.0021 11.3387 22.1849 10.384 21.7276C9.4293 21.2702 8.33223 21.2099 7.33317 21.56C6.83661 21.734 6.37922 22.0041 5.98713 22.355C5.59505 22.7059 5.27596 23.1306 5.04811 23.6049C4.82027 24.0791 4.68813 24.5936 4.65926 25.119C4.63038 25.6444 4.70534 26.1703 4.87984 26.6667C5.23793 27.6672 5.97736 28.4853 6.93666 28.9425C7.89595 29.3997 8.99718 29.4587 9.99984 29.1067C11.1332 28.7067 11.9998 27.8 12.4265 26.6667H19.5865C20.3198 28.7467 22.6132 29.84 24.6665 29.1067C25.1646 28.9345 25.6237 28.6655 26.0175 28.3153C26.4113 27.9651 26.732 27.5406 26.9613 27.066C27.1905 26.5915 27.3237 26.0763 27.3532 25.5502C27.3827 25.024 27.3079 24.4972 27.1332 24C26.5598 22.4 25.0398 21.3333 23.3332 21.3333ZM23.3332 27.3333C22.8027 27.3333 22.294 27.1226 21.919 26.7475C21.5439 26.3725 21.3332 25.8638 21.3332 25.3333C21.3332 24.8029 21.5439 24.2942 21.919 23.9191C22.294 23.544 22.8027 23.3333 23.3332 23.3333C23.8636 23.3333 24.3723 23.544 24.7474 23.9191C25.1225 24.2942 25.3332 24.8029 25.3332 25.3333C25.3332 25.8638 25.1225 26.3725 24.7474 26.7475C24.3723 27.1226 23.8636 27.3333 23.3332 27.3333Z" fill="#00B3FF"/>
</svg>
