<svg width="32" height="32" viewBox="0 0 32 32" fill="none" xmlns="http://www.w3.org/2000/svg">
<path d="M15.9998 2.66675C23.3638 2.66675 29.3332 8.63608 29.3332 16.0001C29.3332 23.3641 23.3638 29.3334 15.9998 29.3334C8.63584 29.3334 2.6665 23.3641 2.6665 16.0001C2.6665 8.63608 8.63584 2.66675 15.9998 2.66675ZM15.9998 8.00008C15.6462 8.00008 15.3071 8.14056 15.057 8.39061C14.807 8.64065 14.6665 8.97979 14.6665 9.33341V16.0001C14.6666 16.3537 14.8071 16.6928 15.0572 16.9427L19.0572 20.9427C19.3086 21.1856 19.6454 21.32 19.995 21.317C20.3446 21.3139 20.6791 21.1737 20.9263 20.9265C21.1735 20.6793 21.3137 20.3449 21.3167 19.9953C21.3198 19.6457 21.1854 19.3089 20.9425 19.0574L17.3332 15.4481V9.33341C17.3332 8.97979 17.1927 8.64065 16.9426 8.39061C16.6926 8.14056 16.3535 8.00008 15.9998 8.00008Z" fill="#FF00B8"/>
</svg>
