<svg width="32" height="32" viewBox="0 0 32 32" fill="none" xmlns="http://www.w3.org/2000/svg">
<path d="M15.9998 2.66666C23.3638 2.66666 29.3332 8.63599 29.3332 16C29.3332 23.364 23.3638 29.3333 15.9998 29.3333C8.63584 29.3333 2.6665 23.364 2.6665 16C2.6665 8.63599 8.63584 2.66666 15.9998 2.66666ZM15.9998 7.99999C15.6462 7.99999 15.3071 8.14047 15.057 8.39051C14.807 8.64056 14.6665 8.9797 14.6665 9.33332V16C14.6666 16.3536 14.8071 16.6927 15.0572 16.9427L19.0572 20.9427C19.3086 21.1855 19.6454 21.3199 19.995 21.3169C20.3446 21.3138 20.6791 21.1736 20.9263 20.9264C21.1735 20.6792 21.3137 20.3448 21.3167 19.9952C21.3198 19.6456 21.1854 19.3088 20.9425 19.0573L17.3332 15.448V9.33332C17.3332 8.9797 17.1927 8.64056 16.9426 8.39051C16.6926 8.14047 16.3535 7.99999 15.9998 7.99999Z" fill="#00FFD1"/>
</svg>
